<?xml version="1.0" encoding="iso-8859-1"?>
<!-- Generator: Adobe Illustrator 19.0.0, SVG Export Plug-In . SVG Version: 6.00 Build 0)  -->
<svg version="1.1" id="Layer_1" xmlns="http://www.w3.org/2000/svg" xmlns:xlink="http://www.w3.org/1999/xlink" x="0px" y="0px"
	 viewBox="0 0 512.427 512.427" style="enable-background:new 0 0 512.427 512.427;" xml:space="preserve">
<g transform="translate(1 1)">
	<polygon style="fill:#FFE100;" points="97.24,357.827 20.44,306.627 20.44,204.227 97.24,153.027 182.573,204.227 182.573,306.627 
			"/>
	<polygon style="fill:#FDCC00;" points="182.573,502.893 97.24,451.693 97.24,357.827 182.573,306.627 267.907,357.827 
		267.907,451.693 	"/>
	<polygon style="fill:#FFA800;" points="182.573,306.627 169.773,314.307 242.307,357.827 242.307,451.693 169.773,495.213 
		182.573,502.893 267.907,451.693 267.907,357.827 	"/>
	<g>
		<polygon style="fill:#FDCC00;" points="267.907,357.827 182.573,306.627 182.573,204.227 267.907,153.027 353.24,204.227 
			353.24,306.627 		"/>
		<polygon style="fill:#FDCC00;" points="182.573,204.227 97.24,153.027 97.24,59.16 182.573,7.96 267.907,59.16 267.907,153.027 		
			"/>
	</g>
	<polygon style="fill:#FFE100;" points="353.24,204.227 267.907,153.027 267.907,59.16 353.24,7.96 438.573,59.16 438.573,153.027 	
		"/>
	<polygon style="fill:#FFA800;" points="353.24,7.96 340.44,15.64 412.973,59.16 412.973,153.027 340.44,196.547 353.24,204.227 
		438.573,153.027 438.573,59.16 	"/>
	<g>
		<polygon style="fill:#FFFFFF;" points="182.573,7.96 195.373,15.64 122.84,59.16 122.84,153.027 195.373,196.547 182.573,204.227 
			97.24,153.027 97.24,59.16 		"/>
		<polygon style="fill:#FFFFFF;" points="182.573,306.627 195.373,314.307 122.84,357.827 122.84,451.693 195.373,495.213 
			182.573,502.893 97.24,451.693 97.24,357.827 		"/>
	</g>
	<polygon style="fill:#FFA800;" points="267.907,153.027 255.107,160.707 327.64,204.227 327.64,306.627 255.107,350.147 
		267.907,357.827 353.24,306.627 353.24,204.227 	"/>
	<polygon style="fill:#FFFFFF;" points="105.773,153.027 118.573,160.707 46.04,204.227 46.04,306.627 118.573,350.147 
		105.773,357.827 20.44,306.627 20.44,204.227 	"/>
	<path style="fill:#FFE100;" d="M470.147,440.6L470.147,440.6c-26.453,26.453-69.973,26.453-96.427,0l0,0
		c-26.453-26.453-26.453-69.973,0-96.427l47.787-46.08l48.64,45.227C496.6,370.627,496.6,413.293,470.147,440.6"/>
	<path style="fill:#FFA800;" d="M470.147,343.32l-48.64-45.227l-12.8,11.947l35.84,33.28c26.453,26.453,26.453,69.973,0,96.427
		c-10.24,10.24-22.187,16.213-35.84,18.773c21.333,4.267,44.373-2.56,61.44-18.773C496.6,413.293,496.6,370.627,470.147,343.32"/>
	<path d="M182.573,212.76c-1.707,0-3.413,0-4.267-0.853l-85.333-51.2c-2.56-1.707-4.267-4.267-4.267-7.68V59.16
		c0-3.413,1.707-5.973,4.267-7.68l85.333-51.2c2.56-1.707,5.973-1.707,8.533,0l85.333,51.2c2.56,1.707,4.267,4.267,4.267,7.68
		v93.867c0,3.413-1.707,5.973-4.267,7.68l-85.333,51.2C185.987,212.76,184.28,212.76,182.573,212.76z M105.773,147.907l76.8,46.08
		l76.8-46.08V64.28l-76.8-46.08l-76.8,46.08V147.907z"/>
	<path d="M353.24,212.76c-1.707,0-3.413,0-4.267-0.853l-85.333-51.2c-2.56-1.707-4.267-4.267-4.267-7.68V59.16
		c0-3.413,1.707-5.973,4.267-7.68l85.333-51.2c2.56-1.707,5.973-1.707,8.533,0l85.333,51.2c2.56,1.707,4.267,4.267,4.267,7.68
		v93.867c0,3.413-1.707,5.973-4.267,7.68l-85.333,51.2C356.653,212.76,354.947,212.76,353.24,212.76z M276.44,147.907l76.8,46.08
		l76.8-46.08V64.28l-76.8-46.08l-76.8,46.08V147.907z"/>
	<path d="M182.573,511.427c-1.707,0-3.413,0-4.267-0.853l-85.333-51.2c-2.56-1.707-4.267-4.267-4.267-7.68v-93.867
		c0-3.413,1.707-5.973,4.267-7.68l85.333-51.2c2.56-1.707,5.973-1.707,8.533,0l85.333,51.2c2.56,1.707,4.267,4.267,4.267,7.68
		v93.867c0,3.413-1.707,5.973-4.267,7.68l-85.333,51.2C185.987,511.427,184.28,511.427,182.573,511.427z M105.773,446.573
		l76.8,46.08l76.8-46.08v-84.48l-76.8-46.08l-76.8,46.08V446.573z"/>
	<path d="M97.24,366.36c-1.707,0-3.413-0.853-5.12-1.707l-76.8-51.2c-1.707-1.707-3.413-4.267-3.413-6.827v-102.4
		c0-2.56,1.707-5.12,3.413-6.827l76.8-51.2c2.56-1.707,5.973-1.707,9.387,0l85.333,51.2c2.56,1.707,4.267,4.267,4.267,7.68v102.4
		c0,3.413-1.707,5.973-4.267,7.68l-85.333,51.2C100.653,366.36,98.947,366.36,97.24,366.36z M28.973,302.36l68.267,46.08l76.8-46.08
		v-93.013l-76.8-46.08l-68.267,46.08V302.36z"/>
	<path d="M267.907,366.36c-1.707,0-3.413,0-4.267-0.853l-85.333-51.2c-2.56-1.707-4.267-4.267-4.267-7.68v-102.4
		c0-3.413,1.707-5.973,4.267-7.68l85.333-51.2c2.56-1.707,5.973-1.707,8.533,0l85.333,51.2c2.56,1.707,4.267,4.267,4.267,7.68v102.4
		c0,3.413-1.707,5.973-4.267,7.68l-85.333,51.2C271.32,366.36,269.613,366.36,267.907,366.36z M191.107,301.507l76.8,46.08
		l76.8-46.08v-92.16l-76.8-46.08l-76.8,46.08V301.507z"/>
	<path d="M421.507,468.76c-20.48,0-40.107-7.68-54.613-22.187c-29.867-29.867-29.867-78.507,0-108.373l48.64-46.08
		c3.413-3.413,8.533-3.413,11.947,0l48.64,45.227c29.867,29.867,29.867,78.507,0,108.373
		C461.613,461.08,441.987,468.76,421.507,468.76z M421.507,310.04l-42.667,40.107c-23.04,23.04-23.04,61.44,0,84.48
		c11.093,11.093,26.453,17.067,42.667,17.067s30.72-5.973,42.667-17.067c23.04-23.04,23.04-61.44,0-84.48L421.507,310.04z"/>
</g>
<g>
</g>
<g>
</g>
<g>
</g>
<g>
</g>
<g>
</g>
<g>
</g>
<g>
</g>
<g>
</g>
<g>
</g>
<g>
</g>
<g>
</g>
<g>
</g>
<g>
</g>
<g>
</g>
<g>
</g>
</svg>
